<svg width="360" height="335" viewBox="0 0 360 335" fill="none" xmlns="http://www.w3.org/2000/svg">
<path d="M25.2475 59.2014L24.7129 58.4896C33.2079 52.5576 43.3664 46.151 54.1782 39.9817C62.9109 34.9395 71.4654 30.3126 79.5446 26.3381L79.9604 27.1093C71.8812 31.0837 63.3862 35.6514 54.6535 40.6936C43.8416 46.9222 33.6832 53.3288 25.2475 59.2014Z" fill="#181818"/>
<path d="M244.455 243.153L192.95 144.148L59.0495 158.444L58.9307 157.554L193.485 143.139L245.287 242.738L244.455 243.153Z" fill="white"/>
<path d="M171.98 212.425L171.148 212.188L192.832 143.436L192.891 143.377L314.495 1.36436L315.208 1.95757L193.604 143.851L171.98 212.425Z" fill="white"/>
<path d="M278.436 154.292L192.891 144.029L192.832 143.792L135.802 7.88957L136.634 7.53365L193.545 143.258L278.554 153.402L278.436 154.292Z" fill="white"/>
<path d="M193.307 144.088H193.129L108.356 131.513L108.535 130.623L193.129 143.199L328.871 55.227L329.406 55.9982L193.307 144.088Z" fill="white"/>
<path d="M290.376 99.0645C304.353 99.0645 315.683 87.7506 315.683 73.7942C315.683 59.8377 304.353 48.5238 290.376 48.5238C276.4 48.5238 265.069 59.8377 265.069 73.7942C265.069 87.7506 276.4 99.0645 290.376 99.0645Z" fill="#7431F4"/>
<path d="M359.05 333.616H10.3367V332.726H153.446L153.208 332.133C157.01 330.828 160.753 327.921 164.554 323.176C165.386 322.167 166.158 321.1 166.931 320.091C170.02 316.117 173.168 311.964 177.564 309.414C183.327 306.032 190.218 305.854 196.871 305.676C201.564 305.558 206.436 305.439 210.891 304.134C222.891 300.753 231.03 289.779 237.743 279.753C239.881 276.61 241.96 273.347 244.04 270.203C253.426 255.788 263.168 240.899 275.406 228.501C292.455 211.12 312.416 201.51 331.545 201.392C346.99 201.332 355.188 207.68 358.693 211.476L358.812 211.595V211.773L359.05 333.616ZM154.158 332.726H358.099L357.98 211.891C354.535 208.213 346.634 202.222 331.96 202.222C331.842 202.222 331.723 202.222 331.604 202.222C312.713 202.341 292.99 211.891 276.059 229.094C264 241.433 254.257 256.263 244.871 270.677C242.792 273.821 240.654 277.084 238.574 280.287C231.802 290.431 223.545 301.583 211.248 305.024C206.673 306.329 201.743 306.448 196.99 306.566C190.158 306.744 183.743 306.922 178.158 310.185C173.881 312.676 170.792 316.71 167.762 320.625C166.99 321.633 166.158 322.701 165.327 323.71C161.584 328.337 157.96 331.303 154.158 332.726Z" fill="white"/>
<path d="M127.289 273.204L126.459 273.528L147.216 326.635L148.046 326.312L127.289 273.204Z" fill="white"/>
<path d="M77.9834 288.735L77.1104 288.913L84.2474 323.844L85.1205 323.666L77.9834 288.735Z" fill="#181818"/>
<path d="M127.366 273.406L126.475 273.347L128.198 250.271C128.792 241.789 128.97 233.069 123.505 227.433C119.346 223.162 113.049 221.976 106.99 221.145C99.089 220.077 91.1286 219.247 83.1682 218.713C74.4356 218.12 68.9702 219.959 66.9504 224.23C64.8118 228.738 67.7227 234.314 71.6435 236.924C75.9207 239.772 81.3861 240.306 86.1979 240.78L86.6138 240.84V241.255C86.6732 250.449 94.5742 257.449 103.188 263.678L102.653 264.39C94.0395 258.102 86.0197 251.043 85.7227 241.67C80.9108 241.195 75.5049 240.543 71.1682 237.696C66.8316 234.848 63.7425 228.857 66.1187 223.874C68.3168 219.247 74.0791 217.23 83.2276 217.883C91.188 218.417 99.2078 219.247 107.109 220.315C113.346 221.205 119.822 222.391 124.158 226.84C129.861 232.713 129.742 241.67 129.089 250.331L127.366 273.406Z" fill="white"/>
<path d="M113.941 221.205L113.05 220.967C115.604 210.586 118.158 200.205 120.713 189.824C121.663 186.028 122.673 181.757 122.198 177.604C121.663 173.155 119.109 169.477 115.723 168.172C111.327 166.511 106.277 169.062 103.545 172.503C100.693 176.121 99.4456 180.748 98.3169 185.612C95.8218 196.587 93.802 207.798 92.3169 218.95L91.4258 218.832C92.9109 207.68 94.9901 196.409 97.4852 185.435C98.6139 180.511 99.8614 175.765 102.832 171.969C106.871 166.867 112.515 165.978 116.02 167.342C119.703 168.706 122.495 172.74 123.089 177.486C123.624 181.816 122.554 186.146 121.604 190.002C118.99 200.443 116.495 210.824 113.941 221.205Z" fill="white"/>
<path d="M69.5051 220.433C67.6041 209.578 66.2971 199.493 65.3466 187.748C64.9308 182.706 64.6932 177.782 66.416 173.333C68.7328 167.283 73.8417 164.732 77.6437 164.91C81.5645 165.147 85.4258 168.054 87.4457 172.443C89.2278 176.359 89.5249 180.867 89.8219 184.841C90.1783 190.18 90.6536 196.171 91.0694 201.926C91.5447 207.62 91.9605 213.552 92.3169 218.832L91.4258 218.891C91.0694 213.612 90.5942 207.68 90.1783 201.985C89.7031 196.231 89.2872 190.239 88.9308 184.841C88.6932 180.926 88.3961 176.537 86.6734 172.799C84.8318 168.706 81.2674 165.978 77.6437 165.74C72.8912 165.503 68.8516 169.477 67.307 173.571C65.7031 177.842 65.8813 182.646 66.2971 187.629C67.2476 199.315 68.5546 209.341 70.4556 220.196L69.5051 220.433Z" fill="white"/>
<path d="M69.8019 260C68.6137 260 67.3068 259.763 66.1187 259.169C63.6236 258.042 61.7226 256.085 59.8217 253.949C56.8514 250.568 53.2276 246 51.2672 240.543C49.3068 234.967 49.485 229.272 51.8019 224.823C54.6533 219.366 60.7722 217.408 69.8613 218.95L69.683 219.84C61.0098 218.357 55.188 220.196 52.5147 225.238C50.3167 229.45 50.1385 234.908 52.0395 240.246C53.9405 245.585 57.5048 250.034 60.4157 253.356C62.1979 255.373 64.0395 257.271 66.4157 258.339C68.9702 259.466 71.7623 259.288 73.5444 257.805C74.9108 256.619 75.683 254.72 75.9801 251.814C76.3365 248.195 75.3266 242.678 74.1979 239.001L75.0296 238.704C76.1583 242.323 77.2276 247.958 76.8712 251.873C76.6929 253.831 76.1583 256.678 74.1385 258.458C73.0098 259.525 71.4652 260 69.8019 260Z" fill="white"/>
<path d="M60.4159 279.338C58.5743 279.338 56.6139 278.804 54.8317 277.737C52.3961 276.194 50.3169 274.296 48.7129 271.983C46.3961 268.957 44.4357 265.576 42.9505 262.076C41.2278 258.161 40.6337 254.958 41.1089 252.051C42 246.475 46.6337 242.382 51.3268 238.704L51.8614 239.416C47.2872 242.975 42.7723 246.89 42 252.17C41.5842 254.898 42.1782 257.924 43.7822 261.661C45.2674 265.161 47.1684 268.423 49.4852 271.389C51.0891 273.644 53.0495 275.482 55.3664 276.906C57.802 278.33 60.6535 278.745 62.9703 277.974C66.7129 276.787 68.7921 272.754 69.2674 269.313C69.7426 265.517 69.208 263.322 68.1981 259.466L69.0297 259.229C70.0396 263.085 70.6337 265.457 70.099 269.372C69.6238 273.11 67.307 277.499 63.208 278.804C62.3169 279.22 61.3664 279.338 60.4159 279.338Z" fill="white"/>
<path d="M77.8811 289.779C74.4356 289.779 71.1682 288.829 68.1979 286.991C65.0494 284.974 62.2573 282.542 59.8811 279.635L60.594 279.101C62.9108 281.948 65.6435 284.321 68.6732 286.279C71.7623 288.236 75.3266 289.126 78.9504 288.889L79.0098 289.779C78.6534 289.779 78.2969 289.779 77.8811 289.779Z" fill="white"/>
<path d="M318.654 165.74C340.668 165.74 358.515 147.92 358.515 125.937C358.515 103.954 340.668 86.1327 318.654 86.1327C296.639 86.1327 278.792 103.954 278.792 125.937C278.792 147.92 296.639 165.74 318.654 165.74Z" fill="white"/>
<path d="M318.654 166.156C296.436 166.156 278.317 148.063 278.317 125.877C278.317 103.691 296.436 85.5989 318.654 85.5989C340.871 85.5989 358.99 103.691 358.99 125.877C358.99 148.063 340.871 166.156 318.654 166.156ZM318.654 86.548C296.911 86.548 279.208 104.225 279.208 125.937C279.208 147.648 296.911 165.325 318.654 165.325C340.396 165.325 358.099 147.648 358.099 125.937C358.099 104.225 340.396 86.548 318.654 86.548Z" fill="#181818"/>
<path d="M291.743 103.691C293.525 104.225 295.366 104.047 297.208 103.988C300.356 103.869 303.505 104.166 306.594 104.878C307.782 105.056 308.911 105.53 309.861 106.302C310.812 107.073 311.228 108.318 310.812 109.505C310.277 110.751 308.673 111.759 309.327 112.945C309.564 113.301 309.861 113.539 310.218 113.717C311.881 114.666 313.366 115.911 314.495 117.513C315.624 119.115 315.921 121.132 315.327 122.971C314.554 124.869 312.594 126.055 310.693 126.886C308.376 127.894 305.941 128.665 303.446 129.14C301.96 129.318 300.535 129.674 299.109 130.148C297.743 130.741 296.495 131.869 296.198 133.292C295.901 134.716 296.911 136.495 298.455 136.555C299.287 136.614 300.119 136.14 300.95 136.021C303.446 135.665 305.228 138.275 307.485 139.343C309.03 140.055 310.812 140.114 312.416 140.767C314.02 141.419 315.505 142.961 315.089 144.563C314.614 146.283 312.356 146.877 311.465 148.419C310.871 149.368 310.812 150.614 309.98 151.266C309.386 151.741 308.495 151.741 307.782 151.978C306 152.512 304.871 154.173 304.277 155.893C303.683 157.613 303.624 159.452 303.327 161.291C302.97 163.545 296.97 159.452 295.901 158.563C294.594 157.554 292.871 156.486 292.099 155.003C291.327 153.52 291.624 151.622 290.911 150.08C290.317 148.715 289.069 147.766 288.356 146.461C288 145.749 287.762 144.978 287.406 144.207C286.99 143.317 286.337 142.546 285.921 141.716C285.446 140.826 285.386 139.817 285.861 138.928C287.05 137.207 290.198 138.216 291.505 136.555C292.218 135.724 292.099 134.419 292.574 133.411C292.931 132.699 293.644 131.987 293.525 131.216C293.287 130.03 291.683 129.97 290.495 129.97C289.188 129.97 287.881 129.674 286.634 129.08C286.277 128.962 285.98 128.665 285.861 128.369C285.802 127.953 285.921 127.597 286.04 127.242C286.337 125.996 285.267 124.809 284.079 124.216C282.891 123.623 281.584 123.386 280.634 122.496C279.505 121.369 278.911 119.767 279.148 118.166C279.386 116.564 279.861 115.081 280.574 113.657C281.881 110.513 283.366 107.488 285.089 104.522C285.624 103.691 286.99 100.903 288.119 101.081C288.535 101.141 289.129 102.327 289.485 102.624C290.257 103.098 290.97 103.454 291.743 103.691Z" fill="#181818"/>
<path d="M355.96 112.293C355.366 110.276 354.356 108.437 353.346 106.42C352.277 104.285 351.089 102.268 349.723 100.37C348.95 99.2425 348.119 98.1747 347.168 97.2256C345.98 96.1578 344.733 95.2087 343.366 94.3782L339.089 91.5902C337.96 90.819 336.772 90.0479 335.525 89.3953C332.436 87.7937 328.931 87.1412 325.485 86.4887C321.921 86.4887 318.356 86.0141 314.733 86.0734C314.079 86.0734 313.426 86.1327 312.832 86.3107C311.94 86.6073 311.287 86.2514 310.396 86.4293C309.742 86.7259 309.148 87.1412 308.614 87.6157C309.861 87.9717 310.812 89.0988 310.99 90.3445C311.109 90.9377 310.99 91.5902 311.049 92.2427C311.228 93.7257 312.475 94.9121 313.841 95.6833C315.208 96.4544 316.634 96.9883 317.822 97.8781C318.178 98.1154 318.475 98.4713 318.653 98.8272C318.891 99.4204 318.594 100.132 318.653 100.844C318.832 102.386 320.614 103.039 322.099 103.454L325.485 104.344C326.198 106.657 324.178 109.386 325.485 111.403C325.842 111.996 326.495 112.471 326.614 113.183C326.792 114.191 325.841 115.022 325.426 115.971C324.95 116.979 325.069 118.225 325.723 119.174C326.911 120.716 327.98 120.182 329.525 120.005C331.426 119.767 333.683 120.42 335.465 120.954C336 121.132 336.594 121.428 336.594 121.962C336.594 122.199 336.475 122.496 336.297 122.674C335.822 123.386 335.228 124.098 334.634 124.691C335.049 125.581 336.475 125.225 337.129 125.877C337.366 126.174 337.544 126.47 337.723 126.826C338.733 128.309 341.346 127.242 342.772 128.369C343.247 128.784 343.544 129.318 343.782 129.852L345.802 134.241C345.98 134.538 346.04 134.835 345.98 135.19C345.921 135.368 345.802 135.546 345.624 135.665C343.366 137.86 339.445 138.512 338.376 141.478C338.317 141.656 338.257 141.834 338.317 141.953C338.376 142.19 338.673 142.309 338.911 142.487C340.515 143.673 338.673 146.817 340.277 148.004C341.109 148.597 342.297 148.182 343.307 148.419C345.327 148.953 345.386 151.444 346.752 152.631C348.119 153.817 349.544 151.503 350.554 150.317C351.327 149.368 351.921 148.3 352.396 147.173C353.584 144.563 355.426 142.309 356.257 139.461C356.733 137.86 356.851 136.199 357.445 134.657C357.921 133.411 358.634 132.046 358.218 130.741C357.802 130.682 357.624 131.216 357.386 131.572C356.911 132.284 356.139 132.758 355.247 132.877C353.228 133.233 351.148 132.818 349.485 131.691C346.931 129.792 350.079 127.835 349.663 125.225C349.485 124.216 348.891 123.267 348.535 122.318C348.178 121.369 348.238 120.064 349.069 119.411C349.723 119.055 350.376 118.937 351.089 118.937C352.634 118.759 354.119 118.344 355.544 117.691C356.257 117.572 356.733 116.861 356.554 116.208C356.554 116.149 356.554 116.089 356.495 116.03L356.436 114.725C356.376 113.954 356.198 113.123 355.96 112.293Z" fill="#181818"/>
<path d="M163.188 312.439H67.9604V333.26H163.188V312.439Z" fill="white"/>
<path d="M163.604 333.675H67.4851V312.024H163.604V333.675ZM68.3762 332.786H162.713V312.854H68.3762V332.786Z" fill="#181818"/>
<path d="M56.8515 81.3871C73.5841 81.3871 87.1485 67.8423 87.1485 51.1339C87.1485 34.4255 73.5841 20.8807 56.8515 20.8807C40.1189 20.8807 26.5544 34.4255 26.5544 51.1339C26.5544 67.8423 40.1189 81.3871 56.8515 81.3871Z" fill="#7431F4"/>
<path d="M33.3861 95.7426L32.495 95.5053C34.6336 87.3192 38.9702 79.9041 43.188 72.7264C44.1979 70.9468 45.3267 69.1079 46.3366 67.3283C48.0593 64.303 49.7821 61.0404 50.4356 57.4812C50.6138 56.6507 50.6732 55.7609 50.7326 54.8711C51.089 45.2019 43.4851 37.0157 33.7425 36.6598H33.5643C32.3762 36.6005 30.891 36.5412 30.0593 35.4734L30.7722 34.9395C31.3663 35.7107 32.495 35.7107 33.6237 35.77H33.8019C44.0197 36.1259 52.0395 44.7273 51.6237 54.9304C51.5643 55.8202 51.5049 56.7693 51.3267 57.6591C50.6138 61.337 48.891 64.6589 47.1088 67.7435C46.0989 69.5825 45.0296 71.3621 43.9603 73.1417C39.8019 80.3194 35.4653 87.6751 33.3861 95.7426Z" fill="white"/>
<path d="M65.406 101.259V101.081C65.0496 87.6751 64.7526 73.7942 62.4357 60.3878C59.8813 45.2612 55.1288 32.4481 48.2971 22.3043L49.01 21.8298C55.8417 32.0922 60.6536 45.0239 63.2674 60.2692C65.5842 73.7349 65.8813 87.6751 66.2377 101.141V101.319L65.406 101.259Z" fill="white"/>
<path d="M24.0594 63.5911L23.4653 62.9386C35.6435 51.3712 52.5742 46.5663 67.4851 43.3037C81.6237 40.2783 98.2574 37.6683 114.475 41.3461L114.297 42.2359C98.2574 38.5581 81.7426 41.1681 67.7228 44.1935C52.8713 47.3967 36.1188 52.2017 24.0594 63.5911Z" fill="white"/>
<path d="M90.6533 75.7517C88.3365 70.4129 85.0098 65.7266 80.6731 61.8115C79.6632 60.8624 78.5345 59.9726 77.4652 59.0828C75.2078 57.2439 72.8315 55.3456 70.99 52.9728L70.9306 52.9135C64.0395 44.0748 65.6434 31.321 74.4949 24.4399L75.0296 25.1517C66.5939 31.7363 65.0494 43.8969 71.6434 52.3796L71.7028 52.439C73.485 54.6931 75.8018 56.5914 78.0593 58.4303C79.1286 59.3201 80.2573 60.2099 81.3266 61.159C85.7226 65.1334 89.1682 69.9384 91.5444 75.3958L90.6533 75.7517Z" fill="white"/>
<path d="M3.98031 82.9295C2.37635 82.9295 1.36645 82.5142 0.891198 81.7431C-0.0592968 80.1414 1.72288 77.2347 6.29714 72.9044C10.4556 68.9299 16.812 63.947 24.713 58.4896L25.2476 59.2014C12.3565 68.1588 0.0595151 78.4805 1.66348 81.2685C2.07932 81.9803 4.63377 83.7006 21.2674 76.9381C33.0298 72.1925 47.9407 64.6589 63.3862 55.7609C78.7724 46.8629 92.7922 37.7276 102.772 29.9566C116.911 18.9824 116.733 15.8978 116.317 15.1859C115.961 14.5927 114.178 13.4657 105.208 16.3723C98.6734 18.4485 89.9407 22.1857 79.9011 27.1093L79.4853 26.3381C87.5645 22.3637 114.119 9.78781 117.03 14.7707C118.396 17.2028 113.762 22.5416 103.248 30.7278C93.208 38.4987 79.1882 47.6933 63.7427 56.5914C48.2971 65.4894 33.3268 73.023 21.5645 77.8279C13.2476 81.2092 7.36645 82.9295 3.98031 82.9295Z" fill="white"/>
<path d="M82.3366 312.379H100.574L92.8515 287.702L77.6436 289.363L82.3366 312.379Z" fill="white"/>
<path d="M67.9605 312.439H46.9902V333.201H67.9605V312.439Z" fill="#181818"/>
<path d="M68.3763 333.675H46.5149V312.024H68.3763V333.675ZM47.406 332.786H67.4852V312.913H47.406V332.786Z" fill="#181818"/>
<path d="M57.9802 124.098C49.9604 124.098 43.4258 117.572 43.4258 109.564C43.4258 101.556 49.9604 95.0308 57.9802 95.0308C66 95.0308 72.5347 101.556 72.5347 109.564C72.5347 117.572 66 124.098 57.9802 124.098ZM57.9802 95.9206C50.4357 95.9206 44.3169 102.031 44.3169 109.564C44.3169 117.098 50.4357 123.208 57.9802 123.208C65.5248 123.208 71.6436 117.098 71.6436 109.564C71.6436 102.031 65.4654 95.9206 57.9802 95.9206Z" fill="white"/>
<path d="M58.4556 119.767C56.6734 119.767 54.8912 119.174 53.406 118.106C51.5051 116.683 49.9605 114.903 48.8318 112.827L49.6041 112.412C50.6734 114.369 52.1585 116.089 53.9407 117.454C55.7229 118.759 57.9803 119.233 60.1189 118.759L60.2971 119.649C59.7031 119.649 59.0496 119.767 58.4556 119.767Z" fill="white"/>
<path d="M86.7921 105.946C81.6238 105.946 77.4653 101.734 77.4653 96.6324C77.4653 91.4715 81.6832 87.3191 86.7921 87.3191C91.9604 87.3191 96.1188 91.5309 96.1188 96.6324C96.1782 101.734 91.9604 105.946 86.7921 105.946ZM86.7921 88.1496C82.099 88.1496 78.3564 91.9461 78.3564 96.5731C78.3564 101.2 82.1584 104.997 86.7921 104.997C91.4257 104.997 95.2277 101.2 95.2277 96.5731C95.2277 91.9461 91.4851 88.1496 86.7921 88.1496Z" fill="white"/>
<path d="M87.1485 103.217C85.9604 103.217 84.8317 102.861 83.8812 102.149C82.6337 101.259 81.6832 100.073 80.9109 98.7679L81.6832 98.3527C82.3366 99.5984 83.2871 100.607 84.3564 101.497C85.4257 102.268 86.7921 102.564 88.099 102.268L88.2772 103.158C87.9208 103.158 87.5049 103.217 87.1485 103.217Z" fill="white"/>
<path d="M188.317 332.964H256.455C255.802 323.235 250.99 314.278 243.267 308.286C258.178 296.007 260.257 274.059 247.96 259.169C246.772 257.746 245.465 256.381 244.04 255.136C250.931 249.204 255.148 240.721 255.802 231.645H187.663C188.257 240.424 192.178 248.61 198.713 254.542C183.861 266.822 181.782 288.829 194.139 303.659C195.921 305.795 197.941 307.753 200.198 309.414C193.247 315.346 188.911 323.828 188.317 332.964Z" fill="#7431F4"/>
<path d="M206.139 80.1414H201.921L200.139 75.6331H204.356L206.139 80.1414Z" fill="#181818"/>
<path d="M202.99 82.6922H198.772L201.921 80.1414H206.139L202.99 82.6922Z" fill="#181818"/>
<path d="M204.357 75.6331L206.139 80.1414L202.99 82.6922L201.208 78.1839L204.357 75.6331Z" fill="#181818"/>
<path d="M201.208 78.1839H196.99L200.138 75.6331H204.356L201.208 78.1839Z" fill="#181818"/>
<path d="M202.99 82.6922H198.772L196.99 78.1839H201.208L202.99 82.6922Z" fill="#181818"/>
<path d="M196.871 87.7344H192.654L195.505 85.3616H199.723L196.871 87.7344Z" fill="#181818"/>
<path d="M188.733 37.253H192.535C191.703 37.3716 190.99 37.6682 190.337 38.2021H186.119C186.772 37.6682 187.485 37.3716 188.317 37.253H188.733V37.253Z" fill="#181818"/>
<path d="M190.337 38.1428H186.119L186.475 37.8462H190.693C190.574 37.9648 190.456 38.0835 190.337 38.1428Z" fill="#181818"/>
<path d="M190.693 37.9055H186.475C186.832 37.6683 187.188 37.4903 187.545 37.3717H191.762C191.406 37.4903 191.05 37.6683 190.693 37.9055Z" fill="#181818"/>
<path d="M191.762 37.3717H187.545C187.782 37.3123 188.02 37.253 188.317 37.1937H192.535C192.238 37.253 192 37.3123 191.762 37.3717Z" fill="#181818"/>
<path d="M199.723 85.3616H195.505L185.703 61.7522H189.921L199.723 85.3616Z" fill="#181818"/>
<path d="M195.386 82.8701L191.168 82.8108L184.752 67.2096H188.97L195.386 82.8701Z" fill="#181818"/>
<path d="M185.287 70.235H181.069L184.753 67.2096H188.97L185.287 70.235Z" fill="#181818"/>
<path d="M189.683 253.89H185.465C183.564 253.89 181.782 252.466 180.772 249.915H184.99C186 252.466 187.842 253.89 189.683 253.89Z" fill="#181818"/>
<path d="M189.683 253.89H185.465C183.564 253.89 181.782 252.466 180.772 249.915H184.99C186 252.466 187.842 253.89 189.683 253.89Z" fill="#181818"/>
<path d="M183.921 66.7351H179.703L185.703 61.7522H189.921L183.921 66.7351Z" fill="#181818"/>
<path d="M185.287 70.235H181.069L179.703 66.7351H183.921L185.287 70.235Z" fill="#181818"/>
<path d="M183.683 98.59H179.465L181.901 96.5731H186.119L183.683 98.59Z" fill="#181818"/>
<path d="M195.386 82.8701L191.168 82.8108L178.574 77.0568H182.792L195.386 82.8701Z" fill="#181818"/>
<path d="M196.871 87.7344H192.654L176.852 80.4973H181.069L196.871 87.7344Z" fill="#181818"/>
<path d="M182.257 63.1166H178.04L176.673 59.6167H180.891L182.257 63.1166Z" fill="#181818"/>
<path d="M177.802 66.7944H173.584L178.04 63.1166H182.257L177.802 66.7944Z" fill="#181818"/>
<path d="M182.792 77.0568H178.574L173.584 66.7944H177.802L182.792 77.0568Z" fill="#181818"/>
<path d="M181.069 80.4973H176.851L169.544 65.4894H173.762L181.069 80.4973Z" fill="#181818"/>
<path d="M173.762 65.4894H169.544L176.673 59.6167H180.891L173.762 65.4894Z" fill="#181818"/>
<path d="M186.119 96.5731H181.901L166.634 67.8622H170.852L186.119 96.5731Z" fill="#181818"/>
<path d="M183.683 98.59H179.465L165.921 73.0823H170.139L183.683 98.59Z" fill="#181818"/>
<path d="M171.861 97.2849H167.644L165.03 73.8535H169.248L171.861 97.2849Z" fill="#181818"/>
<path d="M169.248 73.8535H165.03L165.921 73.0823H170.139L169.248 73.8535Z" fill="#181818"/>
<path d="M169.129 99.5391H164.911L167.644 97.2849H171.861L169.129 99.5391Z" fill="#181818"/>
<path d="M168.119 88.8022H163.901L161.941 71.718H166.158L168.119 88.8022Z" fill="#181818"/>
<path d="M166.158 71.718H161.941L166.634 67.8622H170.852L166.158 71.718Z" fill="#181818"/>
<path d="M168.119 88.8022H163.901L158.317 74.684H162.475L168.119 88.8022Z" fill="#181818"/>
<path d="M160.099 76.7009H155.881L158.317 74.684H162.475L160.099 76.7009Z" fill="#181818"/>
<path d="M170.852 67.8622L186.119 96.5731L183.683 98.59L170.139 73.0823L169.248 73.8535L171.861 97.2849L169.129 99.5391L160.099 76.7009L162.475 74.684L168.119 88.8022L166.159 71.718L170.852 67.8622Z" fill="#181818"/>
<path d="M169.129 99.5391H164.911L155.881 76.7009H160.099L169.129 99.5391Z" fill="#181818"/>
<path d="M256.158 192.85C257.584 196.587 256.693 201.273 254.079 203.349L192.297 252.941C191.643 253.475 190.871 253.771 190.099 253.89C188.079 254.127 186.059 252.704 184.99 249.975L128.911 104.641L126.416 98.2341C124.99 94.4969 125.881 89.8106 128.495 87.7344L190.277 38.1428C190.931 37.6089 191.643 37.3123 192.475 37.1937C194.495 36.9564 196.515 38.3801 197.584 41.1088L256.158 192.85ZM183.683 98.5307L186.119 96.5138L170.851 67.8029L166.158 71.6587L168.119 88.8022L162.475 74.684L160.039 76.7009L169.129 99.4798L171.921 97.1663L169.247 73.7349L170.138 73.023L183.683 98.5307ZM196.871 87.7344L199.723 85.3616L189.98 61.7522L183.921 66.7351L185.346 70.235L188.97 67.2097L195.445 82.8108L182.851 76.9975L177.861 66.7351L182.317 63.0572L180.95 59.5574L173.822 65.43L181.129 80.438L196.871 87.7344ZM202.99 82.6922L206.079 80.1414L204.297 75.6331L201.208 78.1839L202.99 82.6922Z" fill="white"/>
<path d="M189.683 254.364C187.545 254.364 185.584 252.763 184.574 250.093L126 98.412C124.515 94.5562 125.465 89.5733 128.198 87.4378L189.98 37.8462C190.693 37.253 191.525 36.8971 192.416 36.7784C194.733 36.5412 196.871 38.2021 198 40.9902L256.574 192.672C258.059 196.587 257.109 201.51 254.376 203.705L192.594 253.297C191.881 253.89 191.049 254.246 190.158 254.364C189.98 254.364 189.861 254.364 189.683 254.364ZM192.891 37.6683C192.772 37.6683 192.653 37.6683 192.535 37.6683C191.822 37.7869 191.168 38.0242 190.574 38.4987L128.792 88.0903C126.356 90.0479 125.465 94.5562 126.832 98.0561L185.406 249.738C186.356 252.17 188.139 253.593 190.04 253.415C190.752 253.356 191.465 253.059 192 252.585L253.782 202.993C256.218 201.036 257.109 196.527 255.743 193.028L197.168 41.3461C196.277 39.0326 194.673 37.6683 192.891 37.6683ZM168.95 100.31L159.564 76.6415L162.713 74.0315L167.287 85.5989L165.683 71.54L170.97 67.1503L186.653 96.6324L183.921 98.8866L183.624 98.59L183.208 98.8273L169.96 73.8535L169.663 74.0908L172.337 97.5222L168.95 100.31ZM160.634 76.8788L169.366 98.8273L171.505 97.107L168.832 73.6755L170.317 72.4298L183.802 97.8781L185.525 96.4544L170.673 68.574L166.574 71.9553L168.891 92.1834L162.238 75.5145L160.634 76.8788ZM196.634 88.1496L180.653 80.7939L173.109 65.3114L181.01 58.8455L182.733 63.2352L178.277 66.913L183.089 76.7009L194.495 81.921L188.673 67.9215L184.99 70.9468L183.267 66.5571L190.04 60.981L200.139 85.4802L197.049 88.0903L196.752 87.7344L196.634 88.1496ZM181.366 80.1414L196.752 87.2598L199.188 85.2429L189.802 62.464L184.455 66.8537L185.525 69.4638L189.148 66.4385L196.277 83.7006L182.495 77.3534L177.267 66.6164L181.782 62.9386L180.713 60.3285L174.356 65.608L181.366 80.1414ZM203.287 83.0481L202.99 82.6922L202.574 82.8701L200.673 78.0652L204.535 74.9213L206.673 80.2601L203.287 83.0481ZM201.743 78.3025L203.168 81.921L205.545 79.9635L204.119 76.3449L201.743 78.3025Z" fill="#181818"/>
<path d="M180.891 59.6167L182.257 63.1166L177.802 66.7944L182.792 77.0568L195.386 82.8701L188.97 67.2096L185.287 70.235L183.921 66.7351L189.921 61.7522L199.723 85.3616L196.871 87.7344L181.069 80.4973L173.762 65.4894L180.891 59.6167Z" fill="#181818"/>
<path d="M185.05 249.975H180.832L124.693 104.641H128.911L185.05 249.975Z" fill="#181818"/>
<path d="M128.495 87.7344H124.277L186.119 38.1428H190.337L128.495 87.7344Z" fill="#181818"/>
<path d="M128.911 104.641H124.693L122.257 98.234H126.416L128.911 104.641Z" fill="#181818"/>
<path d="M126.416 98.234H122.198C120.772 94.4969 121.663 89.8106 124.277 87.7344H128.495C125.941 89.8106 124.99 94.4969 126.416 98.234Z" fill="#181818"/>
<path d="M126.416 98.234H122.198C122.079 97.9374 121.961 97.6408 121.901 97.2849H126.119C126.238 97.6408 126.297 97.9374 126.416 98.234Z" fill="#181818"/>
<path d="M126.119 97.3442H121.901C121.782 96.8697 121.663 96.3358 121.604 95.8612H125.822C125.881 96.3358 126 96.8104 126.119 97.3442Z" fill="#181818"/>
<path d="M125.822 95.8019H121.604C121.545 95.3274 121.545 94.9121 121.545 94.4376H125.762C125.762 94.9121 125.762 95.3867 125.822 95.8019Z" fill="#181818"/>
<path d="M125.762 94.4969H121.545C121.545 94.0223 121.545 93.5478 121.604 93.1325H125.822C125.822 93.5478 125.762 94.0223 125.762 94.4969Z" fill="#181818"/>
<path d="M125.881 93.1325H121.664C121.723 92.5986 121.842 92.0648 122.02 91.5309H126.238C126.06 92.0648 125.941 92.5986 125.881 93.1325Z" fill="#181818"/>
<path d="M126.178 91.4715H121.96C122.317 89.9885 123.149 88.6835 124.277 87.7344H128.495C127.366 88.7428 126.535 90.0479 126.178 91.4715Z" fill="#181818"/>
<path d="M303.03 267.949H267.148V332.786H303.03V267.949Z" fill="#181818"/>
<path d="M313.901 268.423H278.97V333.142H313.901V268.423Z" fill="white"/>
<path d="M313.426 268.839V332.667H279.386V268.898L313.426 268.839ZM314.376 267.949H278.495V333.557H314.376V267.949Z" fill="#181818"/>
<path d="M286.752 276.728H296.673C296.911 276.728 297.148 276.965 297.148 277.203V287.109C297.148 287.346 296.911 287.584 296.673 287.584H286.752C286.515 287.584 286.277 287.346 286.277 287.109V277.203C286.277 276.906 286.515 276.728 286.752 276.728Z" fill="white"/>
<path d="M296.673 287.999H286.752C286.277 287.999 285.861 287.584 285.861 287.109V277.203C285.861 276.728 286.277 276.313 286.752 276.313H296.673C297.148 276.313 297.564 276.728 297.564 277.203V287.109C297.564 287.584 297.148 287.999 296.673 287.999ZM286.752 277.143V287.05H296.673V277.143H286.752Z" fill="#181818"/>
<path d="M286.752 296.185H296.673C296.911 296.185 297.148 296.422 297.148 296.66V306.566C297.148 306.803 296.911 307.041 296.673 307.041H286.752C286.515 307.041 286.277 306.803 286.277 306.566V296.66C286.277 296.422 286.515 296.185 286.752 296.185Z" fill="white"/>
<path d="M296.673 307.456H286.752C286.277 307.456 285.861 307.041 285.861 306.566V296.66C285.861 296.185 286.277 295.77 286.752 295.77H296.673C297.148 295.77 297.564 296.185 297.564 296.66V306.566C297.564 307.041 297.148 307.456 296.673 307.456ZM286.752 296.66V306.566H296.673V296.66H286.752Z" fill="#181818"/>
<path d="M286.752 315.701H296.673C296.911 315.701 297.148 315.939 297.148 316.176V326.082C297.148 326.32 296.911 326.557 296.673 326.557H286.752C286.515 326.557 286.277 326.32 286.277 326.082V316.176C286.277 315.879 286.515 315.701 286.752 315.701Z" fill="white"/>
<path d="M296.673 326.972H286.752C286.277 326.972 285.861 326.557 285.861 326.082V316.176C285.861 315.701 286.277 315.286 286.752 315.286H296.673C297.148 315.286 297.564 315.701 297.564 316.176V326.082C297.564 326.557 297.148 326.972 296.673 326.972ZM286.752 316.117V326.023H296.673V316.117H286.752Z" fill="#181818"/>
<path d="M303.683 276.728H313.604C313.841 276.728 314.079 276.965 314.079 277.203V287.109C314.079 287.346 313.841 287.584 313.604 287.584H303.683C303.445 287.584 303.208 287.346 303.208 287.109V277.203C303.208 276.906 303.445 276.728 303.683 276.728Z" fill="white"/>
<path d="M313.604 287.999H303.683C303.208 287.999 302.792 287.584 302.792 287.109V277.203C302.792 276.728 303.208 276.313 303.683 276.313H313.604C314.079 276.313 314.495 276.728 314.495 277.203V287.109C314.495 287.584 314.079 287.999 313.604 287.999ZM303.683 277.143V287.05H313.604V277.143H303.683Z" fill="#181818"/>
<path d="M303.683 296.185H313.604C313.841 296.185 314.079 296.422 314.079 296.66V306.566C314.079 306.803 313.841 307.041 313.604 307.041H303.683C303.445 307.041 303.208 306.803 303.208 306.566V296.66C303.208 296.422 303.445 296.185 303.683 296.185Z" fill="white"/>
<path d="M313.604 307.456H303.683C303.208 307.456 302.792 307.041 302.792 306.566V296.66C302.792 296.185 303.208 295.77 303.683 295.77H313.604C314.079 295.77 314.495 296.185 314.495 296.66V306.566C314.495 307.041 314.079 307.456 313.604 307.456ZM303.683 296.66V306.566H313.604V296.66H303.683Z" fill="#181818"/>
<path d="M303.683 315.701H313.604C313.841 315.701 314.079 315.939 314.079 316.176V326.082C314.079 326.32 313.841 326.557 313.604 326.557H303.683C303.445 326.557 303.208 326.32 303.208 326.082V316.176C303.208 315.879 303.445 315.701 303.683 315.701Z" fill="white"/>
<path d="M313.604 326.972H303.683C303.208 326.972 302.792 326.557 302.792 326.082V316.176C302.792 315.701 303.208 315.286 303.683 315.286H313.604C314.079 315.286 314.495 315.701 314.495 316.176V326.082C314.495 326.557 314.079 326.972 313.604 326.972ZM303.683 316.117V326.023H313.604V316.117H303.683Z" fill="#181818"/>
<path d="M358.515 226.009H308.851V333.201H358.515V226.009Z" fill="white"/>
<path d="M358.99 333.616H308.436V225.535H358.99V333.616ZM309.327 332.726H358.099V226.425H309.327V332.726Z" fill="#181818"/>
<path d="M358.515 239.06H320.257V333.201H358.515V239.06Z" fill="white"/>
<path d="M358.99 333.616H319.842V238.585H358.99V333.616ZM320.733 332.726H358.099V239.475H320.733V332.726Z" fill="#181818"/>
<path d="M328.891 238.758L328.261 239.387L358.384 269.458L359.014 268.828L328.891 238.758Z" fill="#181818"/>
<path d="M320.607 251.638L319.967 252.257L358.243 291.708L358.883 291.089L320.607 251.638Z" fill="#181818"/>
</svg>
